HIERARCHY
ROOT Hips
{
	OFFSET 0.00000 0.00000 0.00000
	CHANNELS 6 Xposition Yposition Zposition Yrotation Zrotation Xrotation 
	JOINT Lumbar
	{
		OFFSET 0 0 0
		CHANNELS 3 Zrotation Xrotation Yrotation
		JOINT Neck
		{
			OFFSET 0.00 0.2701 0.00
			CHANNELS 3 Zrotation Xrotation Yrotation
			End Site
			{
				OFFSET 0.00 0.1379 0.00
			}
		}
		JOINT RightShoulder
		{
			OFFSET 0.0119 0.2289 0.1181
			CHANNELS 3 Zrotation Xrotation Yrotation
			JOINT RightElbow
			{
				OFFSET 0.00 -0.1475 0.00
				CHANNELS 2 Zrotation Yrotation
				JOINT RightWrist
				{
					OFFSET 0.00 -0.1605 0.00
					CHANNELS 2 Zrotation Xrotation
					End Site
					{
						OFFSET 0.0040 -0.1068 0.0006
					}
				}
			}
		}
		JOINT LeftShoulder
		{
			OFFSET 0.0119 0.2289 -0.1181
			CHANNELS 3 Zrotation Xrotation Yrotation
			JOINT LeftElbow
			{
				OFFSET 0.00 -0.1475 0.00
				CHANNELS 2 Zrotation Yrotation
				JOINT LeftWrist
				{
					OFFSET 0.00 -0.1605 0.00
					CHANNELS 2 Zrotation Xrotation
					End Site
					{
						OFFSET 0.0040 -0.1068 -0.0006
					}
				}
			}
		}
	}
	JOINT RightHip
	{
		OFFSET 0.0316 -0.0424 0.0458
		CHANNELS 3 Zrotation Xrotation Yrotation
		JOINT RightKnee
		{
			OFFSET 0.00 -0.2438 0.00
			CHANNELS 1 Zrotation
			JOINT RightAnkle
			{
				OFFSET 0.00 -0.2449 0.00
				CHANNELS 3 Zrotation Xrotation Yrotation
				End Site
				{
					OFFSET 0.1237 -0.0542 0.0051
				}
			}
		}
	}
	JOINT LeftHip
	{
		OFFSET 0.0316 -0.0424 -0.0458
		CHANNELS 3 Zrotation Xrotation Yrotation
		JOINT LeftKnee
		{
			OFFSET 0.00 -0.2438 0.00
			CHANNELS 1 Zrotation
			JOINT LeftAnkle
			{
				OFFSET 0.00 -0.2449 0.00
				CHANNELS 3 Zrotation Xrotation Yrotation
				End Site
				{
					OFFSET 0.1237 -0.0542 -0.0051
				}
			}
		}
	}
}
MOTION
Frames: 22
Frame Time: 0.02
-2.31151 -0.44972 0.36518 969.57618 -28.64464 3.63727 37.20907 6.10745 6.27486 -9.81612 12.40673 -0.83079 67.42553 -11.84925 56.75894 107.5295 81.07861 -13.42466 -1.93541 -40.8764 99.75373 82.46484 29.40621 -92.1484 5.72369 -3.30199 5.74781 13.91949 47.39924 5.31521 2.31557 -40.19145 -21.4181 -0.39274 18.05036 -43.07505 0.48759 -22.02022 39.48451 21.31263
-2.31624 -0.45075 0.37163 971.8253 -28.60677 3.49317 37.18084 5.85451 5.69167 -9.67113 13.67172 -0.83079 66.91225 -12.04704 55.67093 107.72713 81.01449 -13.82961 -2.11705 -42.29421 102.04521 83.31159 28.4476 -91.18835 5.18388 -3.11532 9.57107 13.92425 48.27138 5.33398 4.04903 -40.23794 -21.43577 -0.26069 19.34965 -44.21639 0.48216 -21.13719 37.80783 20.84641
-2.32081 -0.45214 0.37856 973.99071 -28.53076 3.4808 37.13576 5.5805 5.40646 -9.51596 14.87312 -0.83079 65.99543 -12.16814 54.57071 108.0784 80.96149 -14.26992 -2.29114 -40.81352 103.96069 81.38895 27.59445 -89.79931 4.54953 -2.65286 13.34416 13.92277 47.75713 5.32803 4.54088 -40.21714 -21.42722 -0.19434 20.4759 -45.02578 0.47554 -19.78173 35.64802 20.23701
-2.32543 -0.4534 0.38534 976.181 -28.46597 3.41397 37.09728 5.32015 5.00129 -9.35997 16.09187 -0.83079 65.2348 -12.31656 53.50317 108.37146 80.90695 -14.68016 -2.46942 -40.8397 105.9937 80.90795 26.74924 -88.61626 3.95025 -2.335 17.08343 13.92258 47.90427 5.32737 5.64844 -40.17548 -21.41269 -0.11418 21.67091 -45.96599 0.46933 -18.6598 33.72893 19.68647
-2.33014 -0.45449 0.39182 978.43331 -28.43097 3.32443 37.06452 5.03807 4.53441 -9.22417 17.36671 -0.83079 64.59885 -12.49645 52.31234 108.61018 80.8384 -15.15537 -2.64872 -40.27087 108.29578 79.84985 25.64914 -87.37584 3.36701 -1.94534 21.09954 13.92312 47.93422 5.32949 6.5939 -40.32463 -21.47205 0.04279 22.91234 -46.98969 0.46329 -17.4497 31.71525 19.15896
-2.33463 -0.45603 0.39904 980.53216 -28.32452 3.31279 37.01721 4.79799 4.26427 -9.04645 18.50599 -0.83079 63.60765 -12.59348 51.37983 108.99823 80.79917 -15.49941 -2.82122 -40.09548 109.91623 79.19116 25.11972 -86.1654 2.74153 -1.63397 24.50669 13.92277 47.87177 5.32808 7.55186 -40.06182 -21.36211 0.02101 24.01419 -47.76108 0.45647 -16.31904 29.78648 18.55163
-2.33851 -0.45869 0.40806 982.252 -28.01547 3.49169 36.91151 4.6787 4.47846 -8.73703 19.29565 -0.83079 61.68707 -12.47223 51.1502 109.79028 80.86633 -15.49843 -2.99291 -42.71517 109.93982 81.20019 26.04217 -85.04131 1.9344 -1.63373 26.31653 13.92289 47.91032 5.32856 8.96109 -38.78839 -20.91541 -0.48075 24.7725 -47.91639 0.44941 -15.46603 28.20113 17.74665
-2.34219 -0.46179 0.41783 983.8156 -27.6378 3.74284 36.79578 4.60299 4.87678 -8.38924 19.94795 -0.83079 59.43197 -12.27261 51.18408 110.72278 80.95835 -15.35982 -3.15494 -45.64965 109.2565 83.5444 27.55005 -83.98136 1.10449 -1.71682 27.49745 13.92289 47.89849 5.32859 10.39928 -37.08994 -20.2802 -1.15997 25.39566 -47.82939 0.44011 -14.72057 26.71911 16.86839
-2.346 -0.46468 0.42734 985.43369 -27.30044 3.95632 36.69843 4.50832 5.18216 -8.07142 20.65689 -0.83079 57.35593 -12.11301 51.10782 111.57327 81.0198 -15.26559 -3.31003 -47.74029 108.75863 85.11165 28.86226 -82.95863 0.34581 -1.74121 28.91457 13.92286 47.89684 5.32844 11.74248 -35.51541 -19.64866 -1.75894 26.08038 -47.85399 0.43254 -13.96376 25.19799 16.03269
-2.34965 -0.46762 0.43655 987.11688 -26.92339 4.19589 36.5409 4.40971 5.53981 -7.70083 21.39024 -0.83079 55.14241 -11.92837 50.99237 112.5067 81.15988 -15.24551 -3.51145 -52.60067 108.79696 89.14022 29.90173 -81.64048 -0.66797 -1.83925 30.53971 13.92288 47.9013 5.32854 13.38453 -34.2191 -19.35257 -2.36255 26.75878 -47.86117 0.42722 -13.03146 23.63159 15.15492
-2.35357 -0.47055 0.44655 988.63068 -26.61308 4.39519 36.50817 4.32937 5.82498 -7.43053 22.0383 -0.83079 53.15295 -11.78302 51.01885 113.29756 81.14581 -15.04266 -3.61579 -51.91686 107.5862 88.25944 31.62073 -80.95877 -1.1613 -1.81328 31.58309 13.92287 47.89841 5.3285 14.43219 -32.25725 -18.32543 -2.99255 27.42023 -47.8509 0.41004 -12.49704 22.18427 14.34668
-2.35835 -0.47348 0.45851 989.69606 -26.50472 4.47675 36.80737 4.29417 5.8936 -7.45191 22.50649 -0.83079 51.76263 -11.72486 51.39426 113.66988 80.66658 -14.32749 -3.44035 -34.86192 102.83007 72.84778 35.29661 -82.01404 -0.15352 -1.37306 31.16915 13.92287 47.89935 5.3285 13.79023 -28.44315 -15.22201 -3.69468 28.06965 -47.85749 0.41509 -13.03242 21.09688 13.77024
-2.36341 -0.47637 0.47124 990.6005 -26.46571 4.5125 37.23465 4.27496 5.87642 -7.57433 22.88949 -0.83079 50.62989 -11.71668 51.89936 113.8913 80.03743 -13.44102 -3.17025 -12.39842 96.89029 52.64819 39.59277 -83.70714 1.36793 -0.81574 30.19246 13.92288 47.89943 5.32851 12.5628 -23.99616 -11.40845 -4.40726 28.70653 -47.85545 0.39627 -13.96746 20.11894 13.26233
-2.36832 -0.4792 0.48367 991.59118 -26.39486 4.56133 37.61422 4.24508 5.87779 -7.64736 23.29767 -0.83079 49.44818 -11.71283 52.33127 114.17489 79.49892 -12.65944 -2.9527 6.90833 91.67462 35.25971 43.45915 -85.11797 2.61704 -0.34763 29.47671 13.92287 47.89911 5.3285 11.63669 -19.91748 -7.98878 -5.08895 29.34975 -47.85528 0.35506 -14.72347 19.05479 12.71026
-2.37331 -0.48238 0.49596 992.52028 -26.32387 4.64568 37.95216 4.23114 5.97065 -7.73478 23.7593 -0.83079 47.96859 -11.59292 52.8331 114.49076 78.86672 -11.75743 -2.69438 29.08965 85.66053 15.26469 47.97491 -86.51309 4.03154 0.26808 28.71711 13.92287 47.89933 5.32851 10.56238 -15.48465 -4.264 -5.89428 29.98822 -47.85521 0.46175 -15.47157 18.14278 12.21308
-2.37819 -0.48483 0.50869 993.54245 -26.26942 4.64393 38.40354 4.18717 5.85192 -7.81538 24.08977 -0.83079 47.17314 -11.72653 53.21594 114.7014 78.39313 -11.06922 -2.49886 46.65519 81.02186 -0.52414 51.2721 -88.07358 5.22129 0.60723 27.92334 13.92287 47.89925 5.32851 9.65702 -11.64297 -1.00612 -6.4334 30.63189 -47.85594 0.24516 -16.3302 16.94501 11.61555
-2.38271 -0.48524 0.52251 994.85317 -26.25277 4.41774 39.16852 4.05706 5.15385 -7.86449 24.09074 -0.83079 48.22051 -12.55712 53.24416 114.66058 78.39914 -10.99804 -2.49771 49.40793 80.61242 -2.79921 51.10131 -90.09364 5.68767 0.13699 27.17535 13.92287 47.89923 5.3285 9.36664 -9.60343 0.76399 -6.30959 31.324 -47.8635 -0.77495 -17.38958 14.87643 10.75355
-2.3871 -0.48494 0.53671 996.26521 -26.24841 4.10605 40.03652 3.89612 4.24841 -7.90139 23.9607 -0.83079 49.94442 -13.63906 53.14629 114.51831 78.56884 -11.15131 -2.5632 47.45196 81.60662 -0.79778 49.67376 -92.23087 5.90649 -0.61167 26.41446 13.92287 47.89924 5.3285 9.26529 -8.17828 2.04135 -5.90279 32.01673 -47.87277 -2.13397 -18.54495 12.52639 9.78373
-2.39153 -0.48498 0.55069 997.63702 -26.23365 3.83136 40.83773 3.74829 3.44671 -7.93587 23.88418 -0.83079 51.35152 -14.6013 53.1005 114.41987 78.66029 -11.2127 -2.6001 48.16225 81.86712 -1.25235 48.78284 -94.20652 6.22312 -1.22175 25.66185 13.92287 47.89922 5.3285 9.07426 -6.46646 3.56216 -5.57552 32.6895 -47.88109 -3.39394 -19.66309 10.34061 8.84356
-2.39605 -0.48493 0.56494 998.97921 -26.2442 3.56164 41.73127 3.60373 2.5996 -8.00662 23.83187 -0.83079 52.81378 -15.59147 53.07942 114.32433 78.763 -11.22592 -2.62778 46.90842 82.4845 0.22656 48.04716 -96.65075 6.61767 -1.88018 24.88161 13.92287 47.89921 5.3285 8.87965 -4.77094 5.03383 -5.45541 33.44466 -47.89043 -4.42743 -20.77736 8.00477 7.98478
-2.40034 -0.48491 0.57868 1000.40847 -26.20076 3.26351 42.45085 3.44623 1.80199 -7.99872 23.69681 -0.83079 54.30982 -16.57856 52.97772 114.20252 78.88283 -11.39423 -2.69014 48.46974 82.71473 -1.16426 46.6972 -98.15239 6.78696 -2.50363 24.15999 13.92287 47.8992 5.3285 8.74384 -3.18665 6.47111 -4.8371 34.02871 -47.89726 -6.00687 -21.90585 5.91378 6.93334
-2.40415 -0.48501 0.591 1002.06115 -26.03406 2.89478 42.70264 3.24792 1.16699 -7.76647 23.38349 -0.83079 55.80751 -17.52852 52.66219 114.0166 79.01268 -11.94331 -2.846 59.67426 81.47777 -12.18009 43.82159 -96.89756 6.37045 -2.97953 23.63598 13.92287 47.8992 5.3285 8.73656 -1.84659 8.0192 -2.90192 34.13726 -47.9004 -9.06233 -23.14564 4.56485 5.35091
